<?xml version="1.0" encoding="UTF-8" standalone="no"?>
<svg
   width="48"
   height="48"
   viewBox="0 0 48 48"
   version="1.1"
   id="svg4"
   sodipodi:docname="extension.svg"
   inkscape:version="1.1.2 (0a00cf5339, 2022-02-04)"
   xmlns:inkscape="http://www.inkscape.org/namespaces/inkscape"
   xmlns:sodipodi="http://sodipodi.sourceforge.net/DTD/sodipodi-0.dtd"
   xmlns="http://www.w3.org/2000/svg"
   xmlns:svg="http://www.w3.org/2000/svg">
  <defs
     id="defs8" />
  <sodipodi:namedview
     id="namedview6"
     pagecolor="#ffffff"
     bordercolor="#666666"
     borderopacity="1.0"
     inkscape:pageshadow="2"
     inkscape:pageopacity="0.0"
     inkscape:pagecheckerboard="true"
     showgrid="false"
     borderlayer="true"
     width="48px"
     inkscape:zoom="8.7916667"
     inkscape:cx="49.421801"
     inkscape:cy="22.748815"
     inkscape:window-width="1920"
     inkscape:window-height="1029"
     inkscape:window-x="0"
     inkscape:window-y="27"
     inkscape:window-maximized="1"
     inkscape:current-layer="svg4" />
  <path
     fill="#ffffff"
     d="m 41,22 h -3 v -8 c 0,-2.2 -1.8,-4 -4,-4 H 26 V 7 C 26,4.24 23.76,2 21,2 18.24,2 16,4.24 16,7 v 3 H 8 c -2.2,0 -3.98,1.8 -3.98,4 v 7.6 H 7 c 2.98,0 5.4,2.42 5.4,5.4 0,2.98 -2.42,5.4 -5.4,5.4 H 4 V 40 c 0,2.2 1.8,4 4,4 h 7.6 v -3 c 0,-2.98 2.42,-5.4 5.4,-5.4 2.98,0 5.4,2.42 5.4,5.4 v 3 H 34 c 2.2,0 4,-1.8 4,-4 v -8 h 3 c 2.76,0 5,-2.24 5,-5 0,-2.76 -2.24,-5 -5,-5 z"
     id="path2"
     style="stroke-width:1.99999;fill:#333333" />
</svg>
