<?xml version="1.0" encoding="UTF-8" standalone="no"?>
<svg
   width="256"
   height="256"
   version="1.1"
   id="svg6"
   sodipodi:docname="y8.svg"
   inkscape:version="1.1.2 (0a00cf5339, 2022-02-04)"
   xmlns:inkscape="http://www.inkscape.org/namespaces/inkscape"
   xmlns:sodipodi="http://sodipodi.sourceforge.net/DTD/sodipodi-0.dtd"
   xmlns="http://www.w3.org/2000/svg"
   xmlns:svg="http://www.w3.org/2000/svg">
  <defs
     id="defs10" />
  <sodipodi:namedview
     id="namedview8"
     pagecolor="#ffffff"
     bordercolor="#666666"
     borderopacity="1.0"
     inkscape:pageshadow="2"
     inkscape:pageopacity="0.0"
     inkscape:pagecheckerboard="true"
     showgrid="false"
     borderlayer="true"
     width="256px"
     inkscape:zoom="1.67125"
     inkscape:cx="163.35079"
     inkscape:cy="129.24458"
     inkscape:window-width="1920"
     inkscape:window-height="1029"
     inkscape:window-x="0"
     inkscape:window-y="27"
     inkscape:window-maximized="1"
     inkscape:current-layer="svg6" />
  <path
     id="rect44"
     style="fill:#ffffff;stroke-width:4.3538"
     d="M 12,64.800003 H 244 V 192.4 H 12 Z" />
  <g
     id="g14"
     transform="matrix(1.92,0,0,1.92,32,83.84)">
    <path
       fill="#010101"
       d="m 36,0.5 h 9 v 18 h -9 z m -9,18 h 9 v 9 h -9 z m -18,0 h 9 v 9 H 9 Z m 9,9 h 9 v 18 H 18 Z M 0,0.5 h 9 v 18 H 0 Z"
       id="path2" />
    <path
       fill="#e92225"
       d="m 62,0.5 h 29 v 9 H 62 Z m 29,9 h 9 v 9 h -9 z m -38,0 h 9 v 9 h -9 z m 0,18 h 9 v 9 h -9 z m 9,-9 h 29 v 9 H 62 Z m 0,18 h 29 v 9 H 62 Z m 29,-9 h 9 v 9 h -9 z"
       id="path4" />
  </g>
</svg>
